<?xml version="1.0" encoding="utf-8"?>
<!-- Generator: Adobe Illustrator 26.1.0, SVG Export Plug-In . SVG Version: 6.00 Build 0)  -->
<svg version="1.1" id="Layer_1" xmlns="http://www.w3.org/2000/svg" xmlns:xlink="http://www.w3.org/1999/xlink" x="0px" y="0px"
	 viewBox="0 0 371.8 265" style="enable-background:new 0 0 371.8 265;" xml:space="preserve">
<style type="text/css">
	.st0{fill:#FDDE2D;}
	.st1{fill:#030201;}
	.st2{fill:#D6981E;}
	.st3{fill:#E5B430;}
	.st4{fill:#EEC767;}
</style>
<g>
	<path class="st0" d="M186.1-28.3c67,0,134.1,0,201.1,0c0.7,0,0.8,0.1,0.8,0.8c0,99.9,0,199.8,0,299.7c0,0.7-0.1,0.8-0.8,0.8
		c-134.1,0-268.1,0-402.2,0c-0.7,0-0.8-0.1-0.8-0.8c0-99.9,0-199.8,0-299.7c0-0.7,0.1-0.8,0.8-0.8C52.1-28.3,119.1-28.3,186.1-28.3z
		 M121.1,45.6L121.1,45.6c-0.3,0.1-0.5,0.2-0.7,0.4c-1.6,1.3-3.3,2.5-4.7,4c-2.8,2.7-5.6,5.4-8,8.5c-0.8,0.9-1.5,1.9-2.2,2.9
		c-1.1,1.6-2.2,3.2-3.1,4.9c-0.8,1.6-1.7,3.1-2.4,4.8c-0.7,1.6-1.2,3.2-1.8,4.8c-0.6,1.9-1.1,3.8-1.5,5.7c-0.4,2.3-0.8,4.6-0.9,6.9
		c-0.1,1.8,0.3,3.3,1.4,4.6c2,2.3,3.7,4.8,5.5,7.2c2.6,3.4,5.1,6.8,7.7,10.2c2.5,3.3,5.1,6.6,7.6,10c2.7,3.6,5.4,7.2,8.1,10.7
		c3.4,4.5,6.8,9,10.3,13.5c3,3.9,6,7.9,8.9,11.8c1.6,2.1,3.2,4.3,4.9,6.4c0.4,0.6,0.6,1,0,1.6c-0.5,0.5-0.9,1.2-1.3,1.7
		c-0.5,0.6-0.3,0.9,0.3,1.2c0.6,0.2,1.2,0.5,1.8,0.7c0.6,0.2,0.8,0.5,0.7,1.1c-0.4,0.3-0.7,0.6-1.1,0.8c-0.7,0.5-1.5,0.8-1.9,1.5
		c-0.4,0.1-0.9,0-1.3,0.2c-1.5,1-3.1,1.6-4.4,2.8c-1.3,0.7-2.3,1.7-3.5,2.6c-0.9,0.6-1.3,1.3-1.3,2.5c0.2,2.7,0.1,5.5,0.1,8.3
		c0,1.7,0.6,2.3,2.4,2.3c1.1,0,2.2,0,3.3,0c0.2,0,0.6,0,0.6,0.3c0,0.2-0.2,0.4-0.4,0.5c-0.2,0.2-0.5,0.4-0.8,0.6
		c-0.7,0.4-0.8,1-0.8,1.6c0,0.6,0,1.1,0,1.7c0,9.1,0,18.1,0,27.2c0,1.9,0.7,2.5,2.6,2.5c11,0,22,0,33,0c0.4,0,0.8,0,1.2,0.1
		c0.7,0.2,1.4,0.1,2-0.4c1.1-0.8,2.2-1.6,3.3-2.4c0.2-0.1,0.4-0.4,0.7-0.3c0.3,0.1,0.1,0.5,0.2,0.7c0,0.3,0.1,0.6,0.1,0.9
		c0.1,0.7,0.4,0.9,1.1,0.9c10.1,0,20.3,0,30.4,0c0.7,0,1.4,0.3,2-0.2c1.4-0.9,2.7-1.8,3.9-2.9l0,0c0.1,0,0.1-0.1,0.2-0.1
		c0.9-0.4,1.3-1,1.3-2c0-9.6,0-19.3,0-28.9c0-0.4,0-0.7,0-1.1c1.2-0.6,2.2-1.5,3.2-2.3c1.1-0.6,1.4-1.4,1.4-2.7
		c-0.1-3-0.1-5.9,0-8.9c0-1.2-0.5-1.9-1.4-2.5c-1.2-0.8-2.5-1.3-4-1.1c-0.9,0.1-1.7,0-2.6,0c0.4-0.7,1.2-1,1.8-1.5
		c0.2-0.2,0.1-0.3-0.1-0.4c-0.4-0.2-0.9-0.5-1.3-0.7c-1.9-1.3-3.8-1.9-6.2-1.7c-2.9,0.2-5.9,0-8.9,0c-0.2,0-0.5,0.1-0.6-0.1
		c3-2.6,6-5.1,9.1-7.8c-0.9-0.3-1.7-0.6-2.5-0.8c-0.6-0.2-0.7-0.4-0.3-0.9c1-1.2,2.1-2.4,3.1-3.6c1.4-1.7,2.9-3.3,4.3-5
		c1.3-1.5,2.5-3,3.8-4.5c1.7-2,3.5-4,5.2-6.1c1.7-1.9,3.3-3.9,5-5.9c1.8-2.1,3.5-4.1,5.3-6.1c1.4-1.7,2.9-3.3,4.3-5
		c1.5-1.8,3-3.5,4.6-5.3c1.3-1.5,2.6-3,3.9-4.5c1.4-1.6,2.9-3.3,4.3-4.9c1.5-1.8,3-3.6,4.5-5.3c1.7-1.9,3.4-3.8,5.1-5.8
		c1.8-2.1,3.6-4.2,5.5-6.3c0.9-1.1,1.7-2.1,1.3-3.6c-0.2-0.9-0.2-1.7-0.3-2.6c-0.2-2.5-0.7-5-1.3-7.4c-0.7-2.9-1.7-5.6-2.9-8.3
		c-0.7-1.7-1.5-3.3-2.4-4.9c-1.5-2.5-3.2-5-5-7.3c-2-2.6-4.2-5-6.6-7.2c-3.9-3.5-8-6.7-12.5-9.5c-6.9-4.3-14.2-7.6-21.9-9.9
		c-13.6-4.2-27.6-5.7-41.8-4.6c-12.4,0.9-24.3,3.7-35.6,8.8c-7.3,3.2-14.1,7.4-20.3,12.5C121.4,45.3,121.2,45.4,121.1,45.6z"/>
	<path class="st1" d="M150.6,170.1c0.4-0.3,0.7-0.6,1.1-0.8c0.5,0,0.9-0.4,1.3-0.6c1.2-0.9,2.5-1.5,4.1-1.3c0.8,0.1,1.6,0,2.4,0
		c0-0.2-0.1-0.3-0.2-0.3c-2-0.9-4.1-1.9-6.1-2.8c-0.2-0.1-0.7-0.2-0.3-0.6c0.5-0.5,0.6-1.3,1.1-1.7c1.3-1,0.8-1.8,0-2.8
		c-1.3-1.6-2.4-3.4-3.8-5c-1.7-2.1-3.3-4.4-5-6.6c-1.5-2-3-4-4.5-6c-1.7-2.2-3.4-4.3-5-6.5c-1.8-2.3-3.4-4.7-5.2-7
		c-2.1-2.8-4.3-5.6-6.4-8.4c-2.7-3.5-5.2-7.1-8-10.6c-2.5-3.3-5-6.5-7.5-9.8c-2.6-3.4-5.2-6.9-7.9-10.3c-0.5-0.7-0.9-1.4-0.8-2.4
		c0.2-1.4,0.2-2.8,0.4-4.2c0.3-2.2,0.7-4.3,1.1-6.5c0-0.2,0-0.3,0.1-0.5c0.6-1.8,1.2-3.6,1.8-5.4c0.3-1,0.8-1.9,1.2-2.8
		c0.4-0.9,1-1.8,1.5-2.8c0.7-1.5,1.5-2.9,2.4-4.2c1.4-2.2,2.9-4.3,4.6-6.3c1.4-1.6,2.8-3.2,4.3-4.7c1.3-1.2,2.6-2.4,3.9-3.6
		c0,0,0,0,0,0c0.2-0.1,0.4-0.1,0.5-0.4c6.2-5.1,12.9-9.3,20.3-12.5c11.3-5,23.2-7.8,35.6-8.8c14.2-1,28.2,0.4,41.8,4.6
		c7.7,2.4,15,5.7,21.9,9.9c4.5,2.8,8.6,6,12.5,9.5c2.4,2.2,4.6,4.7,6.6,7.2c1.8,2.3,3.5,4.8,5,7.3c0.9,1.5,1.7,3.2,2.4,4.9
		c1.1,2.7,2.2,5.5,2.9,8.3c0.6,2.5,1.1,4.9,1.3,7.4c0.1,0.9,0.1,1.7,0.3,2.6c0.3,1.5-0.4,2.6-1.3,3.6c-1.8,2.1-3.6,4.2-5.5,6.3
		c-1.7,1.9-3.4,3.8-5.1,5.8c-1.5,1.8-3,3.6-4.5,5.3c-1.4,1.7-2.8,3.3-4.3,4.9c-1.3,1.5-2.6,3-3.9,4.5c-1.5,1.8-3,3.5-4.6,5.3
		c-1.4,1.7-2.9,3.3-4.3,5c-1.8,2-3.5,4.1-5.3,6.1c-1.7,1.9-3.3,3.9-5,5.9c-1.7,2-3.5,4-5.2,6.1c-1.3,1.5-2.5,3-3.8,4.5
		c-1.4,1.7-2.9,3.3-4.3,5c-1,1.2-2.1,2.4-3.1,3.6c-0.4,0.5-0.3,0.7,0.3,0.9c0.8,0.2,1.6,0.5,2.5,0.8c-3.1,2.6-6.1,5.2-9.1,7.8
		c0.2,0.3,0.4,0.1,0.6,0.1c3,0,5.9,0.1,8.9,0c2.3-0.1,4.3,0.4,6.2,1.7c0.4,0.3,0.8,0.5,1.3,0.7c0.2,0.1,0.3,0.2,0.1,0.4
		c-0.2,0-0.3,0-0.5,0c-8.3,0-16.5,0-24.8,0c-0.3,0-0.7,0-1.1,0c0.7-0.4,1.4-0.3,1.9-0.7c0.2,0,0.5-0.1,0.7-0.1
		c1.9-0.6,3.8-1.4,5.4-2.6c0.1,0,0.2,0,0.2-0.1c0,0,0.1,0,0.1-0.1c0.2,0,0.4,0,0.4-0.3c0.3-0.2,0.7-0.3,0.8-0.7l0,0
		c2.4-1.6,4.4-3.6,6.6-5.6c-1.2-0.4-2.3-0.7-3.4-1c-0.2-0.1-0.4-0.1-0.5,0.1c-0.7,1.2-1.4,2.3-2.2,3.5c-0.1,0.1-0.3,0.1-0.3,0.2
		c-1.1,1.7-2.6,3.2-4.4,4.3c-0.2,0.1-0.6,0.1-0.7,0.4l0,0c-0.1,0-0.3,0-0.4,0.1c-4.2,2-8.6,2.7-13.1,2.7c2.5-0.7,4.9-1.6,7.2-2.8
		c1.5-0.8,3.1-1.5,4.5-2.6c1.3-0.6,2.4-1.6,3.3-2.8c0.3-0.5,0.7-1.1,0.5-1.8c-0.3-1-0.7-1.9-1.6-2.6c-2.8-2-6-2.3-9.2-1.6
		c-1.7,0.4-3,1.2-4.1,2.6c-1.1,1.2-1.9,2.5-2.2,4.1c-0.4,0.7-0.5,1.4-0.6,2.2c-0.7-1.5-1.5-2.9-2.5-4.2c-1.4-1.8-3.1-3.4-5.3-4.2
		c-2.8-0.9-5.5-0.9-8.1,0.6c-1.3,0.8-1.7,3.1-0.8,4c0.9,0.8,1.8,1.6,2.8,2.2c4.1,2.2,8.4,3.9,12.6,5.9c-0.1,0.1-0.1,0.1-0.2,0.2
		c-5.3-0.8-10.5-2-15.7-3.4c-3.7-1-6.9-2.7-9.5-5.5c-0.5-0.5-0.8-0.2-1.1,0.2c-0.6,0.7-1.2,1.5-1.8,2.1c-0.4,0.4-0.4,0.5,0.1,0.8
		c3.6,2,7.6,3.2,11.6,4c4.3,0.8,8.7,1.1,13.1,1.8c1.4,0.2,2.8,0.2,4.2,0.7c-0.3,0-0.6,0-0.9,0C172.8,170.1,161.7,170.1,150.6,170.1z
		 M137.5,81.4c0.1-0.1,0.1-0.1,0.2-0.2c0.7-0.6,1.4-1.2,2.1-1.7c4.8-3.2,10.1-4.1,15.7-3.3c3.5,0.5,6.7,1.8,9.5,4
		c1.5,1.5,3,3.1,3.9,5.1c0.1-0.2,0.1-0.3,0.1-0.5c0.1-5.5,0-11,0.7-16.4c0.3-2.4,0.2-4.8,0.7-7.2c0.3-1.7,0.4-3.4,0.7-5
		c0.5-3.4,1.1-6.8,2-10.2c0.4-1.4,0.7-2.9,1.1-4.3c0.2-0.9,0.4-1.8,0.7-2.6c0.8-2.2,1.5-4.4,2.5-6.5c0.8-1.5,1.5-3,2.5-4.4
		c1.1-1.5,2.3-2.8,4.1-3.8c-0.8,0-1.3,0-1.9,0.1c-6.3,0.6-12.2,2.6-17.6,5.7c-1.5,0.9-3,1.7-4.3,2.8c0,0-0.1,0.1-0.1,0.1
		c-0.2,0-0.3,0-0.4,0.2c-1.6,1.1-3.1,2.4-4.5,3.7c-3.2,3-6,6.3-8.5,9.9c-1.4,2.1-2.7,4.3-3.8,6.6c-1.3,2.6-2.4,5.1-3.4,7.8
		c-0.3,0.8-0.4,1.6-0.8,2.3c-0.8,1.7-1.1,3.5-1.6,5.3c-0.5,1.9-0.9,3.8-1.2,5.8c-0.3,2.3-0.5,4.6-0.8,7c0,0,0,0,0,0c0,0,0,0.1,0,0.1
		c0,0.4,0,0.8,0,1.2c-0.2,0.7,0,1.5-0.1,2.5C135.6,83.9,136.4,82.6,137.5,81.4L137.5,81.4z M204.6,162.4c-0.8,0.7-1.4,1.5-2.3,2.1
		c-1.7,1.2-3.6,2-5.6,2.8c1.3,0,2.5-0.3,3.6-0.8C202.1,165.6,203.8,164.5,204.6,162.4c0.6-0.7,0.9-1.5,1.3-2.3
		c0.5-1,1.3-1.8,1.5-2.9c0.2-0.3,0.5-0.2,0.8-0.1c0.6,0.2,1.1,0.5,1.8,0.5c1.3,0.6,1.3,0.6,2.1-0.2c0.8-0.9,1.5-1.7,2.2-2.6
		c1.9-2.3,3.8-4.5,5.7-6.7c2-2.3,4-4.6,5.9-6.9c1.7-2,3.4-3.9,5-5.9c2-2.3,4-4.7,6-7c1.5-1.7,2.9-3.5,4.5-5.2
		c1.5-1.7,2.9-3.4,4.4-5.1c1.5-1.8,3-3.5,4.6-5.3c1.7-1.9,3.3-3.9,5-5.8c1.5-1.7,3-3.5,4.5-5.3c1.7-1.9,3.4-3.8,5-5.8
		c1.8-2.1,3.6-4.1,5.3-6.3c0.4-0.5,1.1-0.9,1.2-1.7c0-0.7-0.1-1.4-0.4-2c-1.2-2.8-3.1-4.9-5.7-6.4c-4.8-2.7-9.9-3.4-15.2-2.3
		c-3.2,0.7-6.2,1.9-8.5,4.3c-1.8,1.4-2.9,3.3-3.4,5.5c-0.1,0.7-0.5,1.4-0.8,2c-0.4,0.7-0.8,1.3-1.2,2c-0.7,1.3-1.5,2.6-2.3,4
		c-1,1.8-2.1,3.6-3.2,5.4c-0.7,1.3-1.5,2.5-2.2,3.8c-0.8,1.4-1.7,2.8-2.5,4.2c-0.8,1.4-1.6,2.7-2.4,4.1c-0.9,1.5-1.7,3-2.6,4.4
		c-0.8,1.3-1.5,2.7-2.3,4c-1.1,1.6-2,3.3-3,5c-0.8,1.4-1.6,2.7-2.4,4.1c-1,1.8-2.1,3.6-3.2,5.4c-1,1.8-1.9,3.6-3.1,5.4
		c-1.6,2.4-2.9,4.9-4.3,7.3c-1.1,1.8-2,3.6-3.1,5.4c-0.7,1.2-0.7,1.2,0.5,1.7c2,0.8,3.7,1.8,4.6,3.8
		C205,160.1,205,161.3,204.6,162.4z M184.2,160.3c0,0.2,0,0.3,0.2,0.4c0,0,0.1,0,0.1-0.1C184.5,160.4,184.4,160.4,184.2,160.3
		c0-0.9-0.3-1.8-0.5-2.7c-0.4-2.1-0.9-4.2-1.4-6.3c-0.5-2.2-0.9-4.4-1.4-6.6c-0.5-2.1-0.9-4.3-1.4-6.4c-0.5-2.2-0.9-4.4-1.4-6.6
		c-0.4-2.1-0.9-4.3-1.4-6.4c-0.5-2.2-0.9-4.4-1.4-6.6c-0.4-2.1-0.9-4.3-1.4-6.4c-0.6-2.9-1.2-5.8-1.9-8.6c-0.5-2.1-1-4.3-1.4-6.5
		c-0.5-2.8-1.2-5.6-1.8-8.3c-0.3-1.2-0.5-2.5-1-3.7c-1.1-2.7-3-4.6-5.4-6c-5.5-3.1-11.3-3.6-17.2-1.8c-2.4,0.7-4.6,1.8-6.4,3.6
		c-0.9,0.7-1.5,1.5-2.2,2.5c-0.9,1.2-1.2,2.7-1.6,4.1c-0.1,0.2,0,0.4,0.2,0.7c0.6,0.9,1.2,1.9,1.7,2.9c0.9,1.8,2,3.4,2.9,5.2
		c0.8,1.6,1.7,3.1,2.6,4.6c0.8,1.4,1.6,2.7,2.3,4.2c0.8,1.5,1.7,2.9,2.5,4.4c0.8,1.4,1.5,2.9,2.4,4.3c1.3,2.1,2.5,4.3,3.7,6.4
		c0.8,1.4,1.6,2.8,2.4,4.3c1,1.9,2.1,3.7,3.2,5.6c1,1.7,1.9,3.5,2.9,5.2c0.9,1.5,1.7,3,2.6,4.6c0.8,1.4,1.5,2.8,2.3,4.2
		c1.1,1.9,2.1,3.7,3.2,5.6c0.8,1.4,1.5,2.9,2.3,4.3c0.2,0.3,0.4,0.5,0.9,0.5c1.6-0.2,3.2,0,4.8,0.3c0.1,0,0.1,0.1,0.2,0.1
		c1.7,0.6,3.1,1.6,4.4,3C183,158.8,183.4,159.8,184.2,160.3z M231.1,78.6c0.1,0.1,0.1,0.2,0.2,0.2c2.1,1.2,3.8,2.8,5.1,4.9
		c0.3,0.4,0.3,1,0.9,1.4c0.1-1-0.2-1.9-0.2-2.7c-0.2-3.7-0.6-7.3-1.4-10.9c-0.6-2.7-1.3-5.3-2.1-7.9c-0.6-1.9-1.4-3.7-2.1-5.6
		c-1.1-2.7-2.5-5.3-4-7.8c-1.6-2.8-3.5-5.5-5.6-8c-3-3.7-6.4-6.8-10.2-9.6c-5.2-3.8-10.9-6.4-17.2-7.7c-1.9-0.4-3.9-0.7-6.2-0.7
		c1.6,0.9,2.7,2,3.7,3.3c0.6,0.7,1.1,1.5,1.6,2.3c0.1,0.2,0.1,0.3,0.2,0.5c1.2,2.1,2.2,4.3,3,6.6c0.9,2.4,1.5,4.8,2.2,7.3
		c0.5,2,1,3.9,1.3,5.9c0.5,2.8,1,5.7,1.4,8.6c0.3,1.9,0.4,3.8,0.6,5.6c0.4,2.9,0.4,5.8,0.7,8.7c0.3,2.7,0.2,5.4,0.3,8.1
		c0,1.3,0,2.6,0.2,3.9c0.1-0.1,0.2-0.2,0.3-0.2c0.9-2.3,2.6-3.8,4.6-5.1c4.7-3.2,10-4,15.5-3.3C226.5,76.6,228.8,77.5,231.1,78.6z
		 M173.4,81.2c-1.2,0.5-1.9,1.5-2.5,2.5c-1,1.7-1.9,3.4-1.4,5.6c0.6,2.7,1.3,5.5,1.7,8.2c0.1,0.4,0.2,0.8,0.3,1.3c0.7,3,1.4,6,2.1,9
		c0.4,2.1,0.9,4.1,1.3,6.2c0.5,2.3,1,4.5,1.4,6.8c0.4,2.1,0.9,4.1,1.3,6.2c0.5,2.3,1,4.5,1.4,6.8c0.4,2,0.9,4.1,1.3,6.1
		c0.5,2.3,1,4.5,1.4,6.8c0.3,1.7,0.8,3.4,1.1,5.1c0.7,2.9,1.3,5.9,2,8.8c0.5-1,0.7-2,0.9-3c0.7-2.9,1.4-5.7,2.1-8.6
		c0.5-1.9,0.9-3.8,1.4-5.7c0.5-1.9,0.9-3.7,1.4-5.6c0.7-2.9,1.4-5.8,2.1-8.7c0.4-1.6,0.6-3.2,1.1-4.7c0.3-1,0.5-2.1,0.7-3.1
		c0.7-2.9,1.5-5.7,2.3-8.6c0.4-1.7,0.9-3.4,1.3-5.2c0.7-3,1.5-6,2.2-9c0.3-1.5,0.7-3,1.1-4.4c0.2-1,0.4-2.1,0.7-3.1
		c0.7-1.9,0.8-3.7,0-5.7c-1-2.4-2.7-4.2-4.8-5.5c-6.9-4.1-14-4.3-21.2-0.7C175.1,79.5,173.9,80,173.4,81.2z M196.4,154.2
		c0.4,0.1,0.8,0.1,1.2,0.2c0.5,0.1,0.8,0.1,1.2-0.5c0.5-0.8,0.9-1.6,1.4-2.4c1-1.8,2.1-3.6,3.2-5.4c0.8-1.4,1.6-2.8,2.4-4.2
		c1-1.7,2.1-3.4,3.1-5.1c0.8-1.3,1.5-2.7,2.3-4.1c1.1-1.8,2.1-3.6,3.2-5.4c0.8-1.4,1.5-2.8,2.4-4.2c1-1.7,2-3.3,3-4.9
		c1-1.8,2-3.6,3.1-5.4c1.1-1.9,2.2-3.8,3.3-5.7c0.8-1.3,1.5-2.7,2.3-4c1-1.7,2-3.4,3.1-5.1c0.8-1.3,1.5-2.7,2.3-4.1
		c1-1.8,2.2-3.5,3.1-5.4c0.6-1.1,0-2.3-0.4-3.4c-1.2-2.9-3.4-4.9-6.1-6.3c-6-3-12.2-3.2-18.4-0.6c-1.7,0.7-3.4,1.7-4.7,3.1
		c-1.5,1.2-2.5,2.7-3.1,4.5c-0.8,2.4-1.4,4.9-2,7.4c-0.4,1.9-0.9,3.8-1.4,5.6c-0.5,1.9-0.9,3.8-1.4,5.6c-0.7,2.9-1.4,5.8-2.1,8.6
		c-0.8,3.4-1.7,6.9-2.6,10.3c-0.5,2-0.9,3.9-1.4,5.9c-0.5,1.8-0.9,3.6-1.3,5.5c-0.7,2.9-1.4,5.8-2.1,8.7c-0.5,1.9-0.9,3.7-1.4,5.6
		c-0.5,2.5-1.3,4.9-1.7,7.3c-0.1,0.3-0.1,0.6-0.3,0.9c-0.2,0.3-0.3,0.7,0,0.9c0.3,0.2,0.4-0.3,0.7-0.4c0.1-0.1,0.2-0.2,0.3-0.3
		c0.9-1.1,2-1.9,3.3-2.5C192.5,154.2,194.4,154.2,196.4,154.2z M167.5,156.7c1.1-0.9,2.4-1.5,3.8-1.8c0.4-0.1,0.6-0.2,0.3-0.7
		c-1-1.5-1.8-3.1-2.6-4.7c-0.7-1.3-1.5-2.7-2.2-4c-1-2-2.2-3.9-3.3-5.8c-0.8-1.4-1.5-2.9-2.4-4.2c-0.8-1.3-1.6-2.7-2.3-4.1
		c-0.8-1.4-1.5-2.8-2.3-4.2c-1.1-1.9-2.1-3.7-3.2-5.6c-0.8-1.4-1.5-2.9-2.3-4.3c-1-1.7-2-3.4-3-5.1c-1-1.9-2-3.8-3.1-5.6
		c-1.3-2.3-2.6-4.5-3.8-6.7c-1.2-2.2-2.4-4.4-3.6-6.6c-1.3-2.4-2.8-4.5-3.5-7.2c-0.8-3-2.9-5.1-5.6-6.7c-7-4.2-17.2-3.9-23.6,1.5
		c-0.1,0.1-0.2,0.2-0.3,0.3c-1.9,1.5-2.9,3.6-3.6,5.9c-0.1,0.4-0.3,0.9,0.2,1.3c0.6,0.6,1,1.3,1.5,2c1.4,1.9,2.9,3.8,4.3,5.8
		c1.7,2.3,3.5,4.5,5.2,6.8c1.7,2.2,3.3,4.5,5,6.7c2,2.6,4,5.2,5.9,7.8c1.7,2.2,3.3,4.5,5,6.7c2,2.6,4,5.2,5.9,7.8
		c1.7,2.2,3.3,4.5,5,6.7c2,2.6,4,5.2,5.9,7.8c1.5,2,2.9,4.1,4.5,6c1.8,2.2,3.4,4.6,5.2,6.8c0.5,0.7,0.8,0.8,1.1,0.1
		c0.3-0.6,0.9-1,1.1-1.6c0.2-0.2,0.4-0.1,0.6,0.1c0.4,0.4,0.9,0.7,1.3,1.1c1,0.8,2.1,1.7,3.1,2.5c2.2,2.2,5,3.2,8.3,3.8
		c-0.4-0.3-0.6-0.4-0.8-0.5c-2-1.3-3.4-2.9-3.2-5.5c0.1-0.8,0.6-1.3,0.8-2C167.2,157.1,167.4,156.9,167.5,156.7z"/>
	<path class="st1" d="M224.6,189c0,0.4,0,0.7,0,1.1c0,9.6,0,19.3,0,28.9c0,1-0.4,1.6-1.3,2c-0.1,0-0.1,0.1-0.2,0.1l0,0
		c-0.4,0-0.8,0-1.2,0c-10.4,0-20.9,0-31.3,0c-0.8,0-1-0.3-1-1c0-10.2,0-20.5,0-30.7c0-0.8,0.2-1,1-1c10.9,0,21.9,0,32.8,0
		c0.2,0,0.4,0,0.5,0C224.5,188.4,224.6,188.7,224.6,189z"/>
	<path class="st2" d="M224.6,189c0-0.3-0.1-0.6-0.6-0.5c-0.2,0-0.3,0-0.5,0c-10.9,0-21.9,0-32.8,0c-0.8,0-1,0.2-1,1
		c0,10.2,0,20.5,0,30.7c0,0.8,0.2,1,1,1c10.4,0,20.9,0,31.3,0c0.4,0,0.8,0,1.2,0c-1.2,1.1-2.6,2-3.9,2.9c-0.6,0.4-1.4,0.1-2,0.2
		c-10.1,0-20.3,0-30.4,0c-0.7,0-1-0.2-1.1-0.9c0-0.3,0-0.6-0.1-0.9c0-0.2,0.1-0.6-0.2-0.7c-0.3-0.1-0.5,0.2-0.7,0.3
		c-1.1,0.8-2.2,1.6-3.3,2.4c-0.6,0.4-1.3,0.5-2,0.4c-0.4-0.1-0.8-0.1-1.2-0.1c-11,0-22,0-33,0c-1.9,0-2.6-0.6-2.6-2.5
		c0-9.1,0-18.1,0-27.2c0-0.6,0.1-1.1,0-1.7c0-0.6,0.1-1.3,0.8-1.6c0.3-0.1,0.5-0.4,0.8-0.6c0.2-0.1,0.4-0.3,0.4-0.5
		c-0.1-0.3-0.4-0.3-0.6-0.3c-1.1,0-2.2,0-3.3,0c-1.7,0-2.4-0.6-2.4-2.3c0-2.8,0.1-5.5-0.1-8.3c-0.1-1.2,0.3-1.9,1.3-2.5
		c1.2-0.8,2.2-1.8,3.5-2.6c0,3.4,0,6.9,0,10.3c0,0.9,0.4,1.4,1.2,1.7c0.5,0.2,0.9,0.3,1.4,0.3c13.2,0,26.5,0,39.7,0
		c0.7,0,0.8-0.2,0.8-0.8c0-3.5,0-7.1,0-10.6c0-1.3,0-2.6-0.5-3.8c0.7-0.5,1.4-1.1,2.1-1.6c4.6,0.1,9-0.7,13.1-2.7
		c0.1-0.1,0.3-0.1,0.4-0.1c0,0.3-0.2,0.4-0.4,0.5c-0.8,0.5-1.6,1-2.4,1.6c-0.5,0.4-1.3,0.3-1.9,0.7c0.4,0,0.8,0,1.1,0
		c8.3,0,16.5,0,24.8,0c0.2,0,0.3,0,0.5,0c-0.5,0.5-1.3,0.8-1.8,1.5c-0.2,0-0.4,0-0.6,0c-10.4,0-20.7,0-31.1,0c-0.3,0-0.7-0.1-1,0.2
		c1.1,1.6,1.3,3.4,1.3,5.2c-0.1,2.7,0,5.5,0,8.3c0,1.5,0,1.5,1.6,1.5c11.2,0,22.3,0,33.5,0c1,0,2.1-0.1,3.1-0.1
		C226.8,187.6,225.8,188.5,224.6,189z M167,188.5C167,188.5,167,188.5,167,188.5c-6.1,0-12.2,0-18.2,0c-0.8,0-1.1,0.2-1.1,1.1
		c0,9.8,0.1,19.6,0,29.4c0,1.7,0.9,2.3,2.3,2.3c11.8,0,23.5,0,35.3,0c0.7,0,0.9-0.1,0.9-0.9c0-10.3,0-20.7,0-31
		c0-0.7-0.2-0.9-0.9-0.9C179.2,188.5,173.1,188.5,167,188.5z"/>
	<path class="st1" d="M185.6,171.6c0.5,1.2,0.5,2.5,0.5,3.8c0,3.5,0,7.1,0,10.6c0,0.6-0.2,0.8-0.8,0.8c-13.2,0-26.5,0-39.7,0
		c-0.5,0-1-0.1-1.4-0.3c-0.7-0.3-1.2-0.8-1.2-1.7c0-3.4,0-6.9,0-10.3c1.3-1.2,3-1.9,4.4-2.8c0.3-0.2,0.8-0.1,1.3-0.2
		c0.4,0,0.7,0.1,1.1,0.1c10.5,0,21,0,31.5,0c0.5,0,1.1,0,1.6,0C183.9,171.6,184.7,171.6,185.6,171.6z"/>
	<path class="st2" d="M121.1,45.6c-1.3,1.2-2.6,2.4-3.9,3.6c-1.5,1.5-2.9,3.1-4.3,4.7c-1.7,2-3.2,4.1-4.6,6.3
		c-0.9,1.4-1.7,2.8-2.4,4.2c-0.4,0.9-1,1.8-1.5,2.8c-0.4,0.9-0.9,1.8-1.2,2.8c-0.6,1.8-1.1,3.6-1.8,5.4c-0.1,0.2-0.1,0.3-0.1,0.5
		c-0.4,2.2-0.8,4.3-1.1,6.5c-0.2,1.4-0.2,2.8-0.4,4.2c-0.1,0.9,0.2,1.7,0.8,2.4c2.6,3.4,5.3,6.8,7.9,10.3c2.5,3.3,4.9,6.6,7.5,9.8
		c2.7,3.5,5.3,7.1,8,10.6c2.1,2.8,4.3,5.6,6.4,8.4c1.8,2.3,3.4,4.7,5.2,7c1.7,2.2,3.4,4.3,5,6.5c1.5,2,2.9,4,4.5,6
		c1.7,2.2,3.3,4.4,5,6.6c1.3,1.6,2.5,3.3,3.8,5c0.8,1,1.3,1.8,0,2.8c-0.5,0.4-0.7,1.2-1.1,1.7c-0.3,0.4,0.1,0.5,0.3,0.6
		c2,0.9,4.1,1.9,6.1,2.8c0.1,0,0.2,0.1,0.2,0.3c-0.8,0-1.6,0.1-2.4,0c-1.6-0.2-2.9,0.4-4.1,1.3c-0.4,0.3-0.8,0.6-1.3,0.6
		c0.1-0.6-0.2-0.9-0.7-1.1c-0.6-0.2-1.2-0.5-1.8-0.7c-0.6-0.3-0.8-0.6-0.3-1.2c0.5-0.6,0.8-1.2,1.3-1.7c0.6-0.6,0.4-1,0-1.6
		c-1.6-2.1-3.2-4.3-4.9-6.4c-3-3.9-6-7.9-8.9-11.8c-3.4-4.5-6.9-9-10.3-13.5c-2.7-3.6-5.4-7.2-8.1-10.7c-2.5-3.3-5.1-6.6-7.6-10
		c-2.5-3.4-5.1-6.8-7.7-10.2c-1.8-2.4-3.5-4.9-5.5-7.2c-1.2-1.3-1.5-2.8-1.4-4.6c0.1-2.4,0.4-4.7,0.9-6.9c0.3-1.9,0.9-3.8,1.5-5.7
		c0.6-1.6,1.1-3.2,1.8-4.8c0.7-1.6,1.6-3.2,2.4-4.8c0.9-1.7,2-3.3,3.1-4.9c0.7-1,1.4-1.9,2.2-2.9c2.4-3.1,5.2-5.8,8-8.5
		c1.5-1.5,3.1-2.7,4.7-4C120.6,45.9,120.8,45.7,121.1,45.6z"/>
	<path class="st1" d="M227.9,186.8c-1,0-2.1,0.1-3.1,0.1c-11.2,0-22.3,0-33.5,0c-1.6,0-1.6,0-1.6-1.5c0-2.8-0.1-5.5,0-8.3
		c0.1-1.9-0.1-3.7-1.3-5.2c0.4-0.3,0.7-0.2,1-0.2c10.4,0,20.7,0,31.1,0c0.2,0,0.4,0,0.6,0c0.9,0,1.7,0.1,2.6,0
		c1.5-0.2,2.8,0.3,4,1.1c0.9,0.6,1.4,1.3,1.4,2.5c-0.1,3-0.1,5.9,0,8.9C229.3,185.3,229,186.2,227.9,186.8z"/>
	<path class="st2" d="M183,171.6c-0.5,0-1.1,0-1.6,0c-10.5,0-21,0-31.5,0c-0.4,0-0.7,0-1.1-0.1c0.5-0.7,1.3-1.1,1.9-1.5
		c11.1,0,22.1,0,33.2,0c0.3,0,0.6,0,0.9,0c0,0,0.1,0.1,0.1,0.1C184.3,170.8,183.5,171,183,171.6z"/>
	<path class="st2" d="M121.6,45.3c-0.1,0.2-0.4,0.2-0.5,0.4C121.2,45.4,121.4,45.3,121.6,45.3z"/>
	<path class="st2" d="M223.2,221.2c0.1,0,0.1-0.1,0.2-0.1C223.3,221.1,223.2,221.1,223.2,221.2z"/>
	<path class="st0" d="M209.9,157.6c-0.6,0-1.2-0.4-1.8-0.5c-0.3-0.1-0.5-0.2-0.8,0.1c-1,0.4-1.7,1.3-2.6,1.7
		c-0.9-2.1-2.6-3.1-4.6-3.8c-1.2-0.5-1.2-0.4-0.5-1.7c1-1.8,2-3.7,3.1-5.4c1.5-2.4,2.8-4.9,4.3-7.3c1.1-1.7,2-3.6,3.1-5.4
		c1-1.8,2.2-3.5,3.2-5.4c0.7-1.4,1.6-2.7,2.4-4.1c1-1.7,1.9-3.4,3-5c0.9-1.3,1.6-2.7,2.3-4c0.9-1.5,1.7-3,2.6-4.4
		c0.8-1.4,1.6-2.7,2.4-4.1c0.8-1.4,1.7-2.8,2.5-4.2c0.7-1.3,1.5-2.5,2.2-3.8c1.1-1.8,2.2-3.6,3.2-5.4c0.7-1.3,1.5-2.6,2.3-4
		c0.4-0.7,0.8-1.3,1.2-2c0.3-0.6,0.7-1.2,0.8-2c0.5-2.2,1.6-4.1,3.4-5.5c0.3,0.4,0.6,0.1,0.9,0c0.4-0.2,0.8-0.4,1.3-0.5
		c1.2-0.2,2.3-0.6,3.5-0.7c1.7-0.2,3.5-0.4,5.2-0.2c2.2,0.3,4.5,0.8,6.6,1.8c3.4,1.6,6.1,3.9,7.5,7.5c0.5,1.3,0.5,2.3-0.6,3.4
		c-2.5,2.7-4.8,5.5-7.2,8.2c-1.2,1.4-2.4,2.9-3.6,4.4c-1.7,2-3.5,4-5.2,6c-3,3.3-5.8,6.8-8.7,10.1c-2.1,2.4-4.1,4.9-6.2,7.3
		c-2.9,3.4-5.8,6.8-8.7,10.2c-1.9,2.2-3.8,4.4-5.7,6.6c-1.6,1.8-3.1,3.7-4.7,5.5c-1,1.2-2.1,2.5-3.2,3.6
		C211.7,155.6,211,156.8,209.9,157.6z"/>
	<path class="st0" d="M161.9,161.4c-1-0.8-2.1-1.7-3.1-2.5c-0.4-0.4-0.9-0.7-1.3-1.1c-0.2-0.2-0.4-0.2-0.6-0.1
		c-0.7,0.5-1.5,1-2.2,1.5c-1.8-2.2-3.4-4.6-5.2-6.8c-1.6-1.9-3-4-4.5-6c-2-2.6-4-5.2-5.9-7.8c-1.7-2.2-3.3-4.5-5-6.7
		c-2-2.6-4-5.2-5.9-7.8c-1.7-2.2-3.3-4.5-5-6.7c-2-2.6-4-5.2-5.9-7.8c-1.7-2.2-3.3-4.5-5-6.7c-1.7-2.3-3.5-4.5-5.2-6.8
		c-1.4-1.9-2.9-3.8-4.3-5.8c-0.5-0.7-0.9-1.4-1.5-2c-0.5-0.5-0.3-0.9-0.2-1.3c0.7-2.3,1.7-4.4,3.6-5.9c0.1-0.1,0.2-0.2,0.3-0.3
		c0.2,0.5,0.5,0.2,0.7,0.1c3.3-1.1,6.6-1.9,10.1-1.5c3.8,0.5,7.3,1.5,10.4,3.9c2.1,1.7,3.6,3.7,4.3,6.4c0.2,1,0.7,2,1.3,2.8
		c1.9,3.1,3.5,6.4,5.4,9.5c1.8,3.1,3.6,6.3,5.3,9.4c2.1,3.8,4.3,7.7,6.4,11.5c1.2,2.2,2.5,4.3,3.6,6.5c1.3,2.4,2.6,4.7,3.9,7
		c1.3,2.4,2.7,4.8,4,7.2c1.1,1.9,2.2,3.7,3.2,5.6c1.3,2.5,2.7,5,4.2,7.4c-0.2,0.2-0.4,0.3-0.5,0.5c-0.7,0.2-1.3,0.8-1.8,1.3
		C164.1,159.4,162.7,160.1,161.9,161.4z"/>
	<path class="st0" d="M196.4,154.2c-1.9,0-3.9,0-5.7,0.8c-1.3,0.6-2.4,1.4-3.3,2.5c-0.1,0.1-0.2,0.2-0.3,0.3
		c-0.2,0.2-0.3,0.6-0.7,0.4c-0.3-0.2-0.2-0.7,0-0.9c0.2-0.3,0.2-0.6,0.3-0.9c0.5-2.5,1.2-4.9,1.7-7.3c0.4-1.9,0.9-3.7,1.4-5.6
		c0.7-2.9,1.4-5.8,2.1-8.7c0.4-1.8,0.9-3.7,1.3-5.5c0.5-2,0.9-3.9,1.4-5.9c0.9-3.4,1.8-6.8,2.6-10.3c0.7-2.9,1.4-5.8,2.1-8.6
		c0.4-1.9,0.9-3.8,1.4-5.6c0.5-1.9,0.9-3.8,1.4-5.6c0.6-2.5,1.2-5,2-7.4c0.6-1.8,1.5-3.3,3.1-4.5c1.2,0,2.3-0.5,3.4-0.8
		c2.4-0.7,4.9-0.4,7.3-0.5c1.4,0,2.8,0.3,4.2,0.8c4.3,1.4,7.9,3.6,9.8,7.8c0.4,0.9,1,1.9,0.6,2.8c-0.5,1.5-1.5,2.9-2.3,4.3
		c-1,1.7-2,3.3-2.9,5c-1,1.6-1.9,3.3-2.8,4.9c-0.9,1.5-1.7,2.9-2.6,4.4c-0.6,1-1.1,2-1.8,3c-0.7,1.2-1.4,2.4-2.1,3.6
		c-1,1.8-2.2,3.7-3.2,5.5c-1.1,1.9-2.3,3.8-3.4,5.7c-1.2,2.1-2.4,4.1-3.6,6.2c-0.8,1.5-1.7,2.8-2.6,4.3c-0.7,1.3-1.5,2.5-2.2,3.8
		c-0.8,1.3-1.5,2.5-2.2,3.8c-0.8,1.6-1.7,3.1-2.7,4.6C197.4,151.8,196.6,152.9,196.4,154.2z"/>
	<path class="st0" d="M177.8,155c-1.6-0.4-3.2-0.5-4.8-0.3c-0.5,0.1-0.7-0.2-0.9-0.5c-0.8-1.4-1.5-2.9-2.3-4.3
		c-1-1.9-2.1-3.7-3.2-5.6c-0.8-1.4-1.5-2.8-2.3-4.2c-0.8-1.5-1.7-3.1-2.6-4.6c-1-1.7-1.9-3.5-2.9-5.2c-1.1-1.9-2.2-3.7-3.2-5.6
		c-0.8-1.5-1.6-2.9-2.4-4.3c-1.2-2.1-2.3-4.4-3.7-6.4c-0.9-1.4-1.6-2.9-2.4-4.3c-0.8-1.5-1.7-2.9-2.5-4.4c-0.7-1.4-1.5-2.8-2.3-4.2
		c-0.9-1.5-1.8-3-2.6-4.6c-0.9-1.8-2-3.4-2.9-5.2c-0.5-1-1.1-2-1.7-2.9c-0.2-0.3-0.2-0.5-0.2-0.7c0.4-1.4,0.7-2.8,1.6-4.1
		c0.6-0.9,1.3-1.8,2.2-2.5c0.2,0.3,0.4,0.1,0.7,0.1c0.6-0.2,1.3-0.5,1.9-0.5c1.7-0.1,3.4-1,5.2-0.7c0.9,0.1,1.8-0.1,2.7,0
		c3,0.4,5.9,1.1,8.5,2.8c1.2,0.7,2.4,1.6,3.3,2.6c1.7,1.9,2.6,4.1,3,6.6c0.5,2.4,1,4.9,1.6,7.3c0.4,1.9,0.7,3.7,1.2,5.6
		c0.8,3.3,1.4,6.7,2.2,10.1c0.3,1.4,0.7,2.9,1,4.3c0.4,2.3,0.9,4.5,1.4,6.7c0.4,1.8,0.8,3.6,1.2,5.4c1.1,4.9,2.1,9.8,3.2,14.6
		C176.5,149,177.2,152,177.8,155z"/>
	<path class="st0" d="M164.9,80.3c-2.8-2.1-6-3.5-9.5-4c-5.6-0.8-10.9,0.1-15.7,3.3c-0.8,0.5-1.4,1.1-2.1,1.7
		c-0.1,0.1-0.1,0.1-0.2,0.2c0,0,0,0,0,0c-0.3,0-0.5,0.2-0.7,0.3c-0.6,0.4-1.1,1-1.8,1.2c0-0.4,0-0.8,0-1.2c0,0,0-0.1,0-0.1
		c0.2-2.3,0.4-4.7,0.8-7c0.3-1.9,0.7-3.9,1.2-5.8c0.5-1.8,0.8-3.6,1.6-5.3c0.3-0.7,0.5-1.6,0.8-2.3c1-2.7,2.1-5.3,3.4-7.8
		c1.1-2.3,2.4-4.5,3.8-6.6c2.5-3.6,5.3-6.9,8.5-9.9c1.4-1.3,2.9-2.6,4.5-3.7c0.2,0,0.3,0,0.4-0.2c0,0,0.1-0.1,0.1-0.1
		c0.4,0.1,0.8-0.1,1.1-0.3c1.7-1.1,3.5-1.9,5.3-2.6c2.5-1,5.1-1.5,7.7-2.2c1.3-0.3,2.6-0.4,3.9-0.6c0.3,0,0.6,0,0.7,0.3
		c0.1,0.3-0.2,0.4-0.4,0.5c-1,0.9-1.9,1.8-2.7,2.9c-1.4,2-2.4,4.1-3.4,6.3c-1.4,3.1-2.3,6.3-3.2,9.6c-0.7,2.4-1.2,4.9-1.6,7.4
		c-0.1,0.6-0.1,1.3-0.3,1.9c-0.6,2-0.6,4-1,6c-0.2,0.9-0.3,1.8-0.3,2.7c0,2-0.6,3.9-0.6,5.8c0,1.2,0.2,2.3,0,3.4
		C165,76.1,165.2,78.2,164.9,80.3z"/>
	<path class="st0" d="M183,151.8c-0.2-1.7-0.7-3.4-1.1-5.1c-0.4-2.3-0.9-4.5-1.4-6.8c-0.4-2-0.9-4.1-1.3-6.1c-0.5-2.3-1-4.5-1.4-6.8
		c-0.4-2.1-0.9-4.1-1.3-6.2c-0.5-2.3-1-4.5-1.4-6.8c-0.4-2.1-0.9-4.1-1.3-6.2c-0.6-3-1.4-6-2.1-9c-0.1-0.4-0.2-0.8-0.3-1.3
		c-0.5-2.8-1.1-5.5-1.7-8.2c-0.5-2.2,0.4-3.9,1.4-5.6c0.6-1.1,1.3-2.1,2.5-2.5c0.1,0.5,0.5,0.3,0.8,0.2c1.6-0.7,3.4-1,5.1-1.1
		c3-0.2,6.1,0,9,1c4.1,1.4,7.3,3.7,9.2,7.7c0.5,1,0.8,2.3,0.5,3.4c-0.2,1-0.4,2.1-0.7,3.1c-0.5,1.7-0.7,3.4-1.2,5
		c-0.5,1.6-1,3.3-1.3,4.9c-0.3,1.7-1,3.4-1.2,5.1c-0.3,2.4-1.2,4.6-1.7,6.9c-0.7,3.4-1.7,6.7-2.5,10.1c-0.5,2.2-1.1,4.3-1.6,6.4
		c-0.8,3.3-1.6,6.6-2.4,9.8c-0.4,1.8-0.9,3.7-1.4,5.5C183.7,150.2,183.5,151.1,183,151.8z"/>
	<path class="st0" d="M231.1,78.6c-2.3-1.1-4.7-2-7.2-2.4c-5.6-0.7-10.8,0.1-15.5,3.3c-1.9,1.3-3.7,2.9-4.6,5.1
		c0,0.1-0.1,0.1-0.3,0.2c-0.3-1.4-0.2-2.6-0.2-3.9c-0.1-2.7,0-5.4-0.3-8.1c-0.3-2.9-0.3-5.8-0.7-8.7c-0.3-1.9-0.4-3.8-0.6-5.6
		c-0.4-2.9-0.9-5.7-1.4-8.6c-0.4-2-0.8-4-1.3-5.9c-0.7-2.4-1.3-4.9-2.2-7.3c-0.8-2.3-1.8-4.5-3-6.6c-0.1-0.1-0.1-0.3-0.2-0.5
		c0.4,0,0.8,0,1.1,0.1c4.4,1.4,8.5,3.6,12.3,6.3c2.6,1.9,5,3.9,7.2,6.3c2.4,2.6,4.6,5.2,6.6,8.1c1.4,2.2,2.8,4.4,4,6.7
		c1.1,2.2,2.2,4.5,3,6.8c1.5,4.2,2.9,8.5,3.7,12.9C231.5,77.5,231.7,78.1,231.1,78.6z"/>
	<path class="st2" d="M177.8,155c-0.6-3-1.3-6-1.9-9c-1-4.9-2-9.8-3.2-14.6c-0.4-1.8-0.8-3.6-1.2-5.4c-0.5-2.2-1-4.4-1.4-6.7
		c-0.2-1.5-0.7-2.9-1-4.3c-0.7-3.4-1.4-6.7-2.2-10.1c-0.4-1.9-0.8-3.7-1.2-5.6c-0.5-2.4-1.1-4.8-1.6-7.3c-0.5-2.5-1.3-4.7-3-6.6
		c-1-1-2.1-1.9-3.3-2.6c-2.6-1.6-5.5-2.3-8.5-2.8c-0.9-0.1-1.9,0.2-2.7,0c-1.8-0.3-3.5,0.5-5.2,0.7c-0.6,0-1.3,0.3-1.9,0.5
		c-0.3,0.1-0.5,0.2-0.7-0.1c1.8-1.8,4-2.9,6.4-3.6c6-1.8,11.8-1.3,17.2,1.8c2.4,1.4,4.3,3.3,5.4,6c0.5,1.2,0.8,2.5,1,3.7
		c0.6,2.8,1.2,5.5,1.8,8.3c0.4,2.2,0.9,4.3,1.4,6.5c0.7,2.9,1.3,5.8,1.9,8.6c0.4,2.1,0.9,4.3,1.4,6.4c0.5,2.2,0.9,4.4,1.4,6.6
		c0.4,2.1,0.9,4.3,1.4,6.4c0.5,2.2,0.9,4.4,1.4,6.6c0.4,2.1,0.9,4.3,1.4,6.4c0.5,2.2,0.9,4.4,1.4,6.6c0.4,2.1,0.9,4.2,1.4,6.3
		c0.2,0.9,0.5,1.8,0.5,2.7l0,0c-0.8-0.6-1.2-1.5-1.8-2.2c-1.3-1.3-2.7-2.3-4.4-3C177.9,155.1,177.9,155,177.8,155z"/>
	<path class="st2" d="M167.5,156.7c-1.5-2.4-2.9-4.9-4.2-7.4c-1-1.9-2.1-3.7-3.2-5.6c-1.4-2.4-2.7-4.8-4-7.2c-1.3-2.3-2.7-4.7-3.9-7
		c-1.2-2.2-2.4-4.3-3.6-6.5c-2.1-3.8-4.3-7.7-6.4-11.5c-1.7-3.2-3.5-6.3-5.3-9.4c-1.8-3.1-3.4-6.4-5.4-9.5c-0.5-0.9-1-1.8-1.3-2.8
		c-0.6-2.7-2.1-4.7-4.3-6.4c-3.1-2.4-6.6-3.5-10.4-3.9c-3.5-0.4-6.8,0.4-10.1,1.5c-0.2,0.1-0.5,0.4-0.7-0.1
		c6.4-5.4,16.5-5.7,23.6-1.5c2.6,1.6,4.8,3.7,5.6,6.7c0.7,2.7,2.3,4.9,3.5,7.2c1.2,2.2,2.4,4.4,3.6,6.6c1.3,2.2,2.6,4.5,3.8,6.7
		c1,1.9,2,3.8,3.1,5.6c1,1.7,2,3.4,3,5.1c0.8,1.4,1.5,2.9,2.3,4.3c1.1,1.9,2.1,3.7,3.2,5.6c0.8,1.4,1.5,2.8,2.3,4.2
		c0.8,1.4,1.5,2.7,2.3,4.1c0.9,1.4,1.6,2.8,2.4,4.2c1.1,1.9,2.2,3.8,3.3,5.8c0.7,1.4,1.5,2.7,2.2,4c0.9,1.6,1.7,3.2,2.6,4.7
		c0.3,0.4,0.1,0.6-0.3,0.7C169.9,155.2,168.7,155.9,167.5,156.7z"/>
	<path class="st2" d="M231.1,78.6c0.5-0.5,0.4-1.1,0.3-1.7c-0.7-4.4-2.1-8.7-3.7-12.9c-0.8-2.3-1.9-4.6-3-6.8
		c-1.2-2.3-2.5-4.5-4-6.7c-1.9-2.9-4.2-5.6-6.6-8.1c-2.2-2.3-4.6-4.4-7.2-6.3c-3.8-2.7-7.8-4.9-12.3-6.3c-0.3-0.1-0.7-0.1-1.1-0.1
		c-0.5-0.8-1-1.5-1.6-2.3c-1-1.2-2.1-2.4-3.7-3.3c2.3,0,4.2,0.3,6.2,0.7c6.3,1.3,12,3.9,17.2,7.7c3.8,2.8,7.2,6,10.2,9.6
		c2.1,2.5,4,5.2,5.6,8c1.5,2.5,2.9,5.1,4,7.8c0.8,1.8,1.5,3.7,2.1,5.6c0.8,2.6,1.5,5.2,2.1,7.9c0.8,3.6,1.3,7.3,1.4,10.9
		c0,0.9,0.3,1.7,0.2,2.7c-0.5-0.4-0.6-1-0.9-1.4c-1.3-2.1-3-3.7-5.1-4.9C231.3,78.8,231.2,78.7,231.1,78.6z"/>
	<path class="st2" d="M183,151.8c0.5-0.7,0.7-1.6,1-2.5c0.5-1.8,0.9-3.7,1.4-5.5c0.8-3.3,1.6-6.6,2.4-9.8c0.5-2.2,1.1-4.3,1.6-6.4
		c0.7-3.4,1.8-6.7,2.5-10.1c0.5-2.3,1.4-4.6,1.7-6.9c0.2-1.8,0.9-3.4,1.2-5.1c0.3-1.6,0.8-3.3,1.3-4.9c0.5-1.6,0.8-3.4,1.2-5
		c0.3-1,0.5-2.1,0.7-3.1c0.3-1.1,0-2.4-0.5-3.4c-1.9-3.9-5.1-6.3-9.2-7.7c-2.9-1-5.9-1.2-9-1c-1.7,0.1-3.5,0.4-5.1,1.1
		c-0.3,0.1-0.6,0.4-0.8-0.2c0.5-1.2,1.7-1.7,2.7-2.2c7.2-3.5,14.3-3.4,21.2,0.7c2.2,1.3,3.8,3.1,4.8,5.5c0.9,1.9,0.7,3.7,0,5.7
		c-0.4,1-0.5,2.1-0.7,3.1c-0.3,1.5-0.7,3-1.1,4.4c-0.7,3-1.5,6-2.2,9c-0.4,1.7-0.8,3.4-1.3,5.2c-0.7,2.9-1.5,5.7-2.3,8.6
		c-0.3,1-0.4,2.1-0.7,3.1c-0.5,1.5-0.7,3.1-1.1,4.7c-0.8,2.9-1.4,5.8-2.1,8.7c-0.4,1.9-0.9,3.7-1.4,5.6c-0.5,1.9-0.9,3.8-1.4,5.7
		c-0.7,2.9-1.4,5.7-2.1,8.6c-0.2,1-0.4,2-0.9,3C184.3,157.7,183.7,154.7,183,151.8z"/>
	<path class="st2" d="M196.4,154.2c0.3-1.3,1-2.4,1.7-3.6c0.9-1.5,1.8-3.1,2.7-4.6c0.7-1.3,1.5-2.5,2.2-3.8c0.7-1.3,1.5-2.5,2.2-3.8
		c0.8-1.5,1.8-2.8,2.6-4.3c1.1-2.1,2.4-4.1,3.6-6.2c1.1-1.9,2.3-3.8,3.4-5.7c1-1.9,2.1-3.7,3.2-5.5c0.7-1.2,1.4-2.4,2.1-3.6
		c0.6-1,1.2-2,1.8-3c0.9-1.5,1.7-2.9,2.6-4.4c1-1.6,1.9-3.3,2.8-4.9c1-1.7,2-3.3,2.9-5c0.8-1.4,1.8-2.8,2.3-4.3
		c0.3-1-0.2-1.9-0.6-2.8c-2-4.3-5.6-6.4-9.8-7.8c-1.4-0.4-2.7-0.8-4.2-0.8c-2.4,0.1-4.9-0.2-7.3,0.5c-1.1,0.3-2.2,0.9-3.4,0.8
		c1.3-1.4,2.9-2.4,4.7-3.1c6.2-2.5,12.4-2.4,18.4,0.6c2.7,1.4,4.9,3.4,6.1,6.3c0.5,1.1,1,2.2,0.4,3.4c-1,1.8-2.1,3.6-3.1,5.4
		c-0.8,1.3-1.5,2.7-2.3,4.1c-1,1.7-2,3.4-3.1,5.1c-0.8,1.3-1.5,2.7-2.3,4c-1.1,1.9-2.2,3.8-3.3,5.7c-1,1.8-2,3.6-3.1,5.4
		c-1,1.7-2,3.3-3,4.9c-0.8,1.4-1.6,2.8-2.4,4.2c-1.1,1.8-2.1,3.6-3.2,5.4c-0.8,1.4-1.5,2.7-2.3,4.1c-1,1.7-2.1,3.4-3.1,5.1
		c-0.8,1.4-1.6,2.8-2.4,4.2c-1.1,1.8-2.1,3.6-3.2,5.4c-0.5,0.8-0.9,1.6-1.4,2.4c-0.3,0.6-0.6,0.6-1.2,0.5
		C197.2,154.3,196.8,154.3,196.4,154.2z"/>
	<path class="st2" d="M209.9,157.6c1.1-0.8,1.9-2,2.8-3c1.1-1.2,2.1-2.4,3.2-3.6c1.6-1.8,3.1-3.7,4.7-5.5c1.9-2.2,3.8-4.4,5.7-6.6
		c2.9-3.4,5.8-6.8,8.7-10.2c2.1-2.4,4.1-4.9,6.2-7.3c3-3.3,5.8-6.8,8.7-10.1c1.8-2,3.5-4,5.2-6c1.2-1.4,2.4-2.9,3.6-4.4
		c2.4-2.8,4.7-5.6,7.2-8.2c1-1.1,1.1-2.1,0.6-3.4c-1.4-3.6-4.1-5.9-7.5-7.5c-2.1-1-4.3-1.5-6.6-1.8c-1.7-0.2-3.5,0-5.2,0.2
		c-1.2,0.1-2.3,0.4-3.5,0.7c-0.5,0.1-0.9,0.3-1.3,0.5c-0.3,0.2-0.6,0.5-0.9,0c2.4-2.4,5.3-3.6,8.5-4.3c5.3-1.1,10.4-0.4,15.2,2.3
		c2.6,1.5,4.5,3.6,5.7,6.4c0.3,0.6,0.4,1.3,0.4,2c0,0.8-0.7,1.2-1.2,1.7c-1.7,2.1-3.5,4.2-5.3,6.3c-1.7,1.9-3.4,3.8-5,5.8
		c-1.5,1.7-3,3.5-4.5,5.3c-1.7,1.9-3.3,3.9-5,5.8c-1.5,1.8-3,3.5-4.6,5.3c-1.5,1.7-2.9,3.4-4.4,5.1c-1.5,1.7-3,3.5-4.5,5.2
		c-2,2.3-4,4.7-6,7c-1.7,2-3.4,3.9-5,5.9c-2,2.3-4,4.6-5.9,6.9c-1.9,2.2-3.8,4.5-5.7,6.7c-0.7,0.9-1.5,1.7-2.2,2.6
		C211.2,158.2,211.1,158.2,209.9,157.6z"/>
	<path class="st2" d="M164.9,80.3c0.3-2.1,0.1-4.1,0.6-6.2c0.3-1.1,0-2.3,0-3.4c0.1-2,0.6-3.9,0.6-5.8c0-0.9,0.1-1.9,0.3-2.7
		c0.4-2,0.4-4.1,1-6c0.2-0.6,0.2-1.3,0.3-1.9c0.4-2.5,1-5,1.6-7.4c0.9-3.2,1.8-6.5,3.2-9.6c1-2.2,2-4.3,3.4-6.3
		c0.8-1.1,1.7-2,2.7-2.9c0.2-0.1,0.5-0.2,0.4-0.5c-0.1-0.3-0.4-0.3-0.7-0.3c-1.3,0.2-2.7,0.3-3.9,0.6c-2.6,0.6-5.2,1.2-7.7,2.2
		c-1.8,0.8-3.7,1.5-5.3,2.6c-0.4,0.2-0.7,0.4-1.1,0.3c1.3-1.1,2.8-2,4.3-2.8c5.5-3.2,11.3-5.1,17.6-5.7c0.5-0.1,1.1-0.1,1.9-0.1
		c-1.8,1.1-3.1,2.3-4.1,3.8c-1,1.4-1.8,2.9-2.5,4.4c-1,2.1-1.7,4.3-2.5,6.5c-0.3,0.9-0.5,1.8-0.7,2.6c-0.3,1.4-0.7,2.9-1.1,4.3
		c-0.8,3.4-1.5,6.8-2,10.2c-0.3,1.7-0.3,3.4-0.7,5c-0.5,2.4-0.4,4.8-0.7,7.2c-0.7,5.5-0.6,11-0.7,16.4c0,0.1,0,0.3-0.1,0.5
		C167.9,83.3,166.4,81.8,164.9,80.3z"/>
	<path class="st2" d="M184.7,170c-1.3-0.5-2.8-0.5-4.2-0.7c-4.4-0.6-8.7-1-13.1-1.8c-4.1-0.8-8-2-11.6-4c-0.6-0.3-0.5-0.4-0.1-0.8
		c0.7-0.7,1.2-1.4,1.8-2.1c0.3-0.4,0.7-0.7,1.1-0.2c2.6,2.8,5.8,4.5,9.5,5.5c5.2,1.4,10.4,2.5,15.8,3.4c0.2,0.1,0.3,0.2,0.5,0.1
		c-0.1-0.2-0.3-0.1-0.4-0.2c-4.2-2-8.6-3.7-12.6-5.9c-1.1-0.6-2-1.3-2.8-2.2c-0.9-0.9-0.5-3.3,0.8-4c2.6-1.5,5.3-1.5,8.1-0.6
		c2.2,0.7,3.9,2.3,5.3,4.2c1,1.3,1.8,2.7,2.5,4.2c0.2-0.8,0.3-1.5,0.6-2.2c0.8-1,1.8-1.7,2.8-2.5c0.2-0.2,0.4-0.4,0.8-0.3
		c-0.2,0.7-0.7,1.2-1.1,1.8c-0.8,1.4-1.2,2.8-1.5,4.3c-0.1,0.5,0,0.8,0.7,0.6c1.3-0.5,2.7-1,4-1.5c1.5-0.5,2.9-1.4,4.5-1.9
		c0,0.4-0.4,0.4-0.6,0.6c-0.7,0.6-1.5,1.1-2.3,1.6c-1.3,0.9-2.6,1.7-4,2.4c-1.6,0.7-3.3,1-4.6,2.3
		C184.7,170.1,184.7,170.1,184.7,170z M183.6,166.8c-0.1-0.8-0.4-1.5-0.6-2.1c-0.8-2.2-2-4.2-3.7-5.9c-1.4-1.5-3.2-2.1-5.3-1.6
		c-1.2,0.3-1.8,1.2-1.5,2.2c0.2,0.5,0.4,1,0.8,1.5c1.6,1.7,3.6,2.9,5.6,4C180.5,165.6,182,166.3,183.6,166.8z"/>
	<path class="st2" d="M188.2,158.6c1.1-1.4,2.4-2.2,4.1-2.6c3.3-0.7,6.4-0.4,9.2,1.6c0.9,0.6,1.3,1.6,1.6,2.6
		c0.2,0.7-0.2,1.3-0.5,1.8c-0.8,1.2-1.9,2.1-3.3,2.8c0-0.1,0-0.3,0-0.3c0.8-1.1,0.6-2.2-0.1-3.3c0.9-1.1,0.8-1.9-0.3-2.5
		c-2.2-1.3-5.2-2.4-8,0.1c-0.6-0.1-1.2-0.2-1.8,0C188.8,158.7,188.5,158.8,188.2,158.6z"/>
	<path class="st0" d="M199.3,161.1c0.7,1.1,0.9,2.2,0.1,3.3c-0.1,0.1,0,0.2,0,0.3c-1.4,1.1-2.9,1.8-4.5,2.6c-2.3,1.2-4.7,2-7.2,2.8
		c-0.7,0.5-1.4,1.1-2.1,1.6c-0.9,0-1.7,0-2.6,0c0.5-0.6,1.3-0.8,1.8-1.5c1.3-1.3,3-1.6,4.6-2.3c1.5-0.6,2.7-1.5,4-2.4
		c0.7-0.5,1.5-1,2.3-1.6c0.2-0.2,0.5-0.2,0.6-0.6l0,0c0.1,0,0.1-0.1,0.2-0.1l0,0c0.2,0,0.4,0,0.5-0.2
		C197.6,162.3,198.6,161.9,199.3,161.1z"/>
	<path class="st2" d="M161.9,161.4c0.8-1.3,2.1-2,3.2-2.9c0.6-0.5,1.1-1,1.8-1.3c-0.1,0.7-0.7,1.2-0.8,2c-0.2,2.6,1.2,4.2,3.2,5.5
		c0.2,0.1,0.4,0.3,0.8,0.5C167,164.6,164.2,163.6,161.9,161.4z"/>
	<path class="st2" d="M206.6,162.4c0.7-1.2,1.4-2.4,2.2-3.5c0.1-0.2,0.3-0.2,0.5-0.1c1.1,0.3,2.2,0.6,3.4,1c-2.2,2-4.2,4-6.6,5.6
		c-0.1-0.4,0.1-0.6,0.4-0.8c0.3-0.2,0.6-0.4,0.9-0.7c0.5-0.5,0.6-0.9-0.2-1.1C207,162.8,206.7,162.8,206.6,162.4z"/>
	<path class="st0" d="M206.6,162.4c0,0.3,0.3,0.4,0.6,0.4c0.8,0.2,0.7,0.6,0.2,1.1c-0.3,0.3-0.6,0.5-0.9,0.7
		c-0.3,0.2-0.5,0.4-0.4,0.8c0,0,0,0,0,0c-0.5,0-0.8,0.2-0.8,0.7c-0.2,0-0.4,0-0.4,0.3c0,0,0,0.1-0.1,0.1c-0.1,0-0.2,0.1-0.2,0.1
		c-1.6,1.2-3.5,2-5.4,2.6c-0.2,0.1-0.4,0.1-0.7,0.1c0.8-0.5,1.6-1,2.4-1.6c0.2-0.1,0.4-0.3,0.4-0.5l0,0c0.3,0,0.6,0,0.7-0.4
		c1.8-1.1,3.2-2.5,4.4-4.3C206.4,162.6,206.5,162.5,206.6,162.4z"/>
	<path class="st0" d="M188.2,158.6c0.3,0.2,0.6,0.1,0.9,0c0.6-0.2,1.2-0.1,1.8,0c-0.2,0.2-0.4,0.3-0.6,0.5c-0.1,0.1-0.1,0.1-0.2,0.2
		l0,0l0,0c-0.2,0-0.4,0-0.4,0.3l0,0c-0.2,0-0.2,0.2-0.2,0.3l0,0c-0.3-0.1-0.5,0.1-0.8,0.3c-1,0.8-2,1.5-2.8,2.5
		C186.3,161.1,187.1,159.8,188.2,158.6z"/>
	<path class="st2" d="M204.5,162.4c-0.8,2-2.4,3.2-4.3,4c-1.1,0.5-2.3,0.8-3.6,0.8c1.9-0.8,3.8-1.6,5.6-2.8
		C203.1,163.9,203.8,163.1,204.5,162.4C204.6,162.4,204.5,162.4,204.5,162.4z"/>
	<path class="st2" d="M204.7,158.9c1-0.4,1.6-1.3,2.6-1.7c-0.3,1.1-1.1,1.9-1.5,2.9c-0.4,0.8-0.7,1.6-1.3,2.3c0,0,0,0,0,0
		C205,161.3,205,160.1,204.7,158.9z"/>
	<path class="st2" d="M135,83c0.8-0.2,1.2-0.9,1.8-1.2c0.2-0.1,0.4-0.4,0.7-0.3c-1,1.1-1.8,2.4-2.6,4C134.9,84.5,134.8,83.7,135,83z
		"/>
	<path class="st2" d="M154.7,159.3c0.7-0.5,1.5-1,2.2-1.5c-0.2,0.7-0.7,1.1-1.1,1.6C155.4,160.1,155.2,160,154.7,159.3z"/>
	<path class="st2" d="M205.3,166.1c0-0.6,0.3-0.7,0.8-0.7C206,165.8,205.6,165.9,205.3,166.1z"/>
	<path class="st2" d="M201.9,166.9c-0.1,0.3-0.4,0.4-0.7,0.4C201.4,167,201.7,167,201.9,166.9z"/>
	<path class="st2" d="M184.2,160.3c0.2,0,0.3,0.1,0.3,0.3c0,0-0.1,0.1-0.1,0.1C184.2,160.7,184.2,160.5,184.2,160.3
		C184.2,160.3,184.2,160.3,184.2,160.3z"/>
	<path class="st2" d="M204.9,166.4c0-0.2,0.2-0.3,0.4-0.3C205.2,166.4,205,166.3,204.9,166.4z"/>
	<path class="st2" d="M160,33c-0.1,0.2-0.2,0.2-0.4,0.2C159.7,33,159.8,33,160,33z"/>
	<path class="st2" d="M135,81.6c0,0.1,0,0.1,0,0.1C135,81.7,135,81.7,135,81.6C135,81.6,135,81.6,135,81.6z"/>
	<path class="st2" d="M137.5,81.4c0.1-0.1,0.1-0.1,0.2-0.2C137.6,81.3,137.5,81.4,137.5,81.4z"/>
	<path class="st2" d="M204.5,166.6c0.1,0,0.2-0.1,0.2-0.1C204.8,166.6,204.7,166.6,204.5,166.6z"/>
	<path class="st1" d="M167,188.5c6.1,0,12.2,0,18.2,0c0.7,0,0.9,0.2,0.9,0.9c0,10.3,0,20.7,0,31c0,0.7-0.2,0.9-0.9,0.9
		c-11.8,0-23.5,0-35.3,0c-1.5,0-2.3-0.6-2.3-2.3c0.1-9.8,0-19.6,0-29.4c0-0.9,0.3-1.1,1.1-1.1C154.8,188.5,160.9,188.5,167,188.5
		C167,188.5,167,188.5,167,188.5z"/>
	<path class="st1" d="M190.3,159.1c0.2-0.2,0.4-0.3,0.6-0.5c2.9-2.5,5.8-1.3,8-0.1c1.2,0.7,1.2,1.4,0.3,2.5
		c-0.7,0.8-1.6,1.2-2.4,1.8c-0.2,0-0.4,0-0.5,0.2l0,0c-0.1,0-0.2,0-0.2,0.1l0,0c-1.6,0.5-3,1.3-4.5,1.9c-1.4,0.5-2.7,1-4,1.5
		c-0.7,0.3-0.8,0-0.7-0.6c0.3-1.5,0.8-3,1.5-4.3c0.3-0.6,0.8-1.1,1.1-1.8c0,0,0,0,0,0c0.2,0,0.2-0.2,0.2-0.3l0,0
		c0.2,0,0.4-0.1,0.4-0.3l0,0c0,0,0,0,0,0C190.3,159.3,190.3,159.2,190.3,159.1z"/>
	<path class="st1" d="M183.6,166.8c-1.7-0.5-3.1-1.2-4.6-2c-2-1.1-4-2.3-5.6-4c-0.4-0.4-0.7-0.9-0.8-1.5c-0.3-1,0.4-1.9,1.5-2.2
		c2.1-0.5,3.8,0.2,5.3,1.6c1.6,1.7,2.8,3.7,3.7,5.9C183.2,165.3,183.5,165.9,183.6,166.8z"/>
	<path class="st1" d="M184.1,169.3c0.1,0.1,0.3,0,0.4,0.2c-0.2,0.1-0.4,0.1-0.5-0.1C184,169.4,184.1,169.3,184.1,169.3z"/>
	<path class="st2" d="M196.4,163.1c0.1-0.2,0.3-0.2,0.5-0.2C196.8,163.1,196.6,163.2,196.4,163.1z"/>
	<path class="st2" d="M196.2,163.3c0-0.1,0.1-0.1,0.2-0.1C196.3,163.2,196.3,163.3,196.2,163.3z"/>
	<path class="st2" d="M190.2,159.3c0,0.2-0.2,0.3-0.4,0.3C189.8,159.4,189.9,159.3,190.2,159.3z"/>
	<path class="st2" d="M189.8,159.6c0,0.2,0,0.3-0.2,0.3C189.5,159.8,189.6,159.7,189.8,159.6z"/>
	<path class="st2" d="M190.3,159.1c0,0.1,0,0.2-0.2,0.2C190.2,159.3,190.3,159.2,190.3,159.1z"/>
</g>
<g>
	<path class="st3" d="M181.3,216.1c-1.1,0-2.1,0-3.2,0c-1.2,0-2.4,0-3.6,0c-1.5,0-2.7-1-2.9-2.5c-0.1-0.5-0.1-0.9,0.1-1.4
		c0-0.1,0.1-0.1,0.1-0.1c2.1,0,4.1,0,6.2,0c1.2,0,2.5,0,3.7,0c1.4,0,2.6,1,2.9,2.4c0.1,0.5,0.1,1-0.1,1.5c0,0,0,0.1-0.1,0.1
		c0,0-0.1,0-0.1,0C183.3,216.1,182.3,216.1,181.3,216.1C181.3,216.1,181.3,216.1,181.3,216.1z"/>
	<path class="st3" d="M190.9,212.3C190.9,212.3,190.9,212.3,190.9,212.3C191,212.3,191,212.3,190.9,212.3c0.1,0,0.1,0,0.1,0
		c0,0,0,0,0,0c0,0,0,0,0,0c0,0,0,0,0.1,0c0,0,0,0,0,0c0,0,0,0,0.1,0c0,0,0,0,0.1,0c0,0,0.1,0,0.1,0c0,0,0.1,0,0.1,0c0,0,0,0,0.1,0
		c1.2,0,2.4,0,3.6,0c0,0,0.1,0,0.1,0c0,0,0,0,0.1,0c0,0,0,0,0.1,0c0.1,0,0.2,0,0.2,0c2,0,4,0,6,0c0,0,0.1,0,0.1,0
		c0.4,1.2,0.1,2.2-0.8,3.1c-0.5,0.4-1,0.7-1.7,0.8c-0.1,0-0.2,0-0.4,0c-1.1,0-2.3,0-3.4,0c-2.1,0-4.3,0-6.4,0c-0.1,0-0.1,0-0.1-0.1
		c-0.3-1-0.1-1.9,0.5-2.7c0.3-0.4,0.6-0.6,1-0.8c0,0,0,0,0,0c0,0,0.1,0,0.1,0c0,0,0,0,0,0c0.1,0,0.1-0.1,0.2-0.1
		C190.8,212.3,190.8,212.3,190.9,212.3C190.9,212.3,190.9,212.3,190.9,212.3C190.9,212.3,190.9,212.3,190.9,212.3z"/>
	<path class="st4" d="M194,199.8c-0.1-0.1-0.2-0.2-0.3-0.4c-0.2-0.3-0.4-0.5-0.6-0.8c-0.8-0.8-1.7-1.5-2.7-2
		c-0.5-0.2-0.9-0.4-1.4-0.5c-0.5-0.1-0.9-0.2-1.4-0.3c-0.3,0-0.7,0-1,0c-0.8,0-1.6,0.1-2.4,0.4c-0.9,0.3-1.7,0.6-2.4,1.2
		c-0.3,0.2-0.6,0.5-0.9,0.7c-0.4,0.4-0.8,0.8-1.1,1.3c-0.1,0.1-0.2,0.3-0.3,0.4c0,0,0,0,0,0c-0.1-0.1-0.1-0.2-0.1-0.2
		c-0.1,0-0.1-0.1-0.2-0.1c-0.1,0-0.1,0-0.1-0.1c0-0.1-0.1-0.1-0.1-0.1c-0.1,0-0.2,0-0.2-0.1c0-0.1,0.1-0.3,0.2-0.4
		c0.4-0.9,0.9-1.8,1.6-2.5c0.7-0.7,1.5-1.3,2.4-1.8c0.6-0.3,1.3-0.6,2-0.7c0.4-0.1,0.9-0.2,1.3-0.2c0.2,0,0.4,0,0.6,0
		c0.4,0,0.8,0,1.1,0.1c0.6,0.1,1.2,0.2,1.7,0.4c0.8,0.2,1.5,0.6,2.2,1c0.3,0.2,0.6,0.5,0.9,0.7c0.6,0.5,1.1,1.1,1.5,1.7
		c0.5,0.7,0.8,1.4,1,2.2c0,0,0,0,0,0.1c0,0,0,0,0,0c0,0.1-0.1,0.1-0.1,0c-0.2,0-0.3-0.1-0.5,0c0,0,0,0-0.1,0c0,0-0.1,0-0.1,0
		c0,0,0,0.1,0,0.1c0,0,0,0,0,0.1C194.2,199.8,194.1,199.8,194,199.8z"/>
	<path class="st3" d="M177.9,198.4c-0.1,0.3-0.3,0.6-0.4,0.9c-0.2,0.7-0.4,1.4-0.5,2.1c-0.1,0.5-0.1,1-0.1,1.5
		c0,0.9,0.2,1.9,0.5,2.8c0.3,1,0.8,1.9,1.4,2.8c0.8,1.1,1.8,1.9,2.9,2.6c0,0,0.1,0,0.1,0.1c0,0,0,0,0,0c0,0,0,0-0.1,0
		c-1.6,0-3.1,0-4.7,0c-0.1,0-0.1,0-0.1-0.1c-0.6-0.9-1.1-2-1.4-3c-0.2-0.8-0.4-1.5-0.5-2.3c-0.1-0.5-0.1-1.1,0-1.6
		c0-1,0.2-2.1,0.5-3.1c0.4-1.1,0.9-2.1,1.5-3.1c0,0,0,0,0-0.1c0,0,0,0,0.1,0c0.1,0.1,0.2,0.1,0.2,0c0,0,0-0.1,0-0.1c0,0,0,0,0.1,0
		c0,0,0,0.1,0,0.1c-0.1,0,0,0.1,0,0.1c0,0,0,0,0.1,0c0.1,0,0.2,0,0.3,0.1C177.9,198.3,177.9,198.3,177.9,198.4
		C177.9,198.4,177.9,198.4,177.9,198.4z"/>
	<path class="st3" d="M197.6,200.6c0.2,0.6,0.4,1.2,0.5,1.8c0.2,0.9,0.3,1.9,0.2,2.8c-0.1,1.2-0.3,2.4-0.7,3.5
		c-0.3,0.8-0.7,1.7-1.2,2.4c0,0-0.1,0.1-0.1,0.1c-1.6,0-3.2,0-4.7,0c0,0,0,0-0.1,0c0,0,0,0,0.1-0.1c0.9-0.5,1.7-1.1,2.3-1.9
		c0.7-0.8,1.3-1.6,1.7-2.6c0.3-0.7,0.6-1.4,0.7-2.2c0.2-0.9,0.2-1.7,0.2-2.6c0-0.2-0.1-0.5-0.1-0.7c0,0,0.1,0,0.1,0
		c0.1,0,0.1,0,0.1-0.1c0,0,0,0,0-0.1c0-0.1,0-0.2,0.1-0.1c0.1,0,0.2-0.1,0.2-0.1c0,0,0.1-0.1,0.1-0.1c0,0,0.1,0,0.1,0
		c0-0.1,0.1-0.1,0.1-0.1c0,0,0.1,0,0.1,0C197.4,200.5,197.5,200.5,197.6,200.6C197.6,200.6,197.6,200.6,197.6,200.6z"/>
	<path class="st4" d="M179.7,200.7c0-0.1,0.1-0.2,0.2-0.3c0.1-0.3,0.3-0.5,0.5-0.7c0.5-0.6,1-1.1,1.7-1.5c0.3-0.2,0.7-0.4,1-0.5
		c0.7-0.3,1.4-0.5,2.2-0.6c0.6-0.1,1.2-0.1,1.8-0.1c1,0,2,0.2,3,0.6c0.5,0.2,0.9,0.4,1.3,0.7c0.5,0.3,1,0.7,1.4,1.1
		c0.3,0.4,0.6,0.7,0.8,1.2c0,0,0,0,0,0.1c-0.1,0-0.1,0-0.1,0.1c0,0.1-0.1,0.1-0.2,0.1c-0.2,0-0.3,0-0.5,0c0,0-0.1,0-0.1,0.1
		c0,0.1,0,0.1,0,0.2c0,0,0,0-0.1-0.1c-0.3-0.3-0.6-0.6-1-0.8c-0.7-0.5-1.4-0.8-2.1-1c-0.5-0.1-1-0.3-1.4-0.3
		c-0.5-0.1-0.9-0.1-1.4-0.1c-0.5,0-0.9,0-1.3,0.1c-1,0.1-1.9,0.4-2.8,0.9c-0.2,0.1-0.4,0.2-0.6,0.4c-0.3,0.2-0.6,0.4-0.8,0.6
		c-0.1,0.1-0.3,0.3-0.4,0.4c0-0.1-0.1,0-0.2,0c-0.1,0-0.2,0-0.4,0c0,0,0,0,0,0c0-0.1-0.1,0-0.1-0.1c0,0,0,0,0,0
		C179.8,200.8,179.8,200.7,179.7,200.7z"/>
	<path class="st4" d="M197.6,200.6C197.6,200.6,197.6,200.6,197.6,200.6c-0.1-0.1-0.2-0.1-0.3,0c0,0,0,0.1-0.1,0
		c-0.1,0-0.1,0-0.1,0.1c0,0,0,0-0.1,0c-0.1,0-0.1,0-0.1,0.1c-0.1,0.1-0.1,0.1-0.2,0.1c-0.1,0-0.1,0-0.1,0.1c0,0,0,0,0,0.1
		c0,0.1,0,0.1-0.1,0.1c0,0-0.1,0-0.1,0c0-0.1-0.1-0.3-0.1-0.5c-0.1-0.7-0.3-1.3-0.6-1.9c-0.4-0.9-0.8-1.7-1.4-2.4
		c-0.7-0.9-1.6-1.6-2.6-2.2c-0.2-0.1-0.5-0.3-0.7-0.4c0,0,0,0,0,0c0.1,0,0.3,0.1,0.4,0.1c0.7,0.3,1.4,0.7,2.1,1.1
		c0.3,0.2,0.6,0.4,0.9,0.7c0.8,0.7,1.6,1.5,2.2,2.4c0.2,0.3,0.4,0.7,0.6,1C197.2,199.7,197.4,200.1,197.6,200.6
		C197.6,200.5,197.6,200.6,197.6,200.6z"/>
	<path class="st4" d="M177.9,198.4C177.9,198.4,177.9,198.4,177.9,198.4c0-0.1,0-0.1,0-0.1c-0.1,0-0.2-0.1-0.3-0.1c0,0-0.1,0-0.1,0
		c0,0,0-0.1,0-0.1c0,0,0,0,0-0.1c0,0,0,0-0.1,0c0,0,0,0,0,0.1c0,0.1-0.2,0.1-0.2,0c0,0,0,0-0.1,0c0.1-0.2,0.2-0.3,0.3-0.5
		c0.3-0.4,0.6-0.8,1-1.1c0.4-0.4,0.7-0.7,1.1-1c0.3-0.3,0.7-0.5,1.1-0.7c0.5-0.3,1-0.6,1.6-0.8c0.1,0,0.2-0.1,0.4-0.1
		c-0.1,0.1-0.2,0.1-0.3,0.2c-0.4,0.2-0.9,0.5-1.3,0.8c-0.5,0.4-1,0.8-1.5,1.3c-0.5,0.5-0.9,1-1.2,1.6
		C178.2,197.8,178.1,198.1,177.9,198.4C177.9,198.4,177.9,198.4,177.9,198.4z M177.7,198.1C177.7,198.1,177.7,198.1,177.7,198.1
		C177.6,198.1,177.6,198.1,177.7,198.1C177.6,198.1,177.6,198.1,177.7,198.1C177.7,198.1,177.7,198.1,177.7,198.1z"/>
	<path class="st3" d="M178.5,199.1c0.1,0,0.2,0,0.2,0.1c0.1,0,0.1,0.1,0.1,0.1c0,0.1,0.1,0.1,0.1,0.1c0.1,0,0.1,0.1,0.2,0.1
		c0.1,0.1,0.1,0.2,0.1,0.2c0,0,0,0,0,0c-0.1,0.2-0.2,0.3-0.3,0.5c-0.5,0.9-0.9,1.8-1,2.8c0-0.1,0-0.1,0-0.2c-0.1-0.7,0-1.4,0.1-2.1
		C178.2,200.3,178.3,199.7,178.5,199.1C178.5,199.2,178.5,199.2,178.5,199.1z"/>
	<path class="st3" d="M194,199.8c0.1,0,0.2,0,0.3,0c0,0,0,0,0-0.1c0,0,0-0.1,0-0.1c0,0,0.1,0,0.1,0c0,0,0,0,0.1,0c0.2,0,0.3,0,0.5,0
		c0,0,0.1,0,0.1,0c0,0,0,0,0,0c0.1,0.2,0.1,0.4,0.1,0.5c0,0.1,0,0.2,0.1,0.2c0.1,0.4,0.1,0.8,0.1,1.1c0,0.4,0,0.7,0,1.1
		c0,0.1,0,0.3,0,0.4c0-0.2-0.1-0.3-0.1-0.5c-0.2-0.7-0.4-1.4-0.8-2.1C194.3,200.3,194.2,200.1,194,199.8z"/>
	<path class="st3" d="M192.7,200.9c0-0.1,0-0.1,0-0.2c0,0,0-0.1,0.1-0.1c0.2,0,0.3,0,0.5,0c0.1,0,0.1,0,0.2-0.1
		c0-0.1,0.1-0.1,0.1-0.1c0.3,0.5,0.4,0.9,0.5,1.4c0.1,0.5,0.1,1,0,1.5c0,0,0,0,0-0.1c-0.2-0.9-0.6-1.6-1.2-2.3
		C192.9,201,192.8,201,192.7,200.9z"/>
	<path class="st3" d="M179.7,200.7c0,0.1,0.1,0.1,0.2,0.1c0,0,0,0,0,0c0,0.1,0.1,0.1,0.1,0.1c0,0,0,0,0,0c0.1,0,0.2,0,0.4,0
		c0.1,0,0.1-0.1,0.2,0c-0.1,0.1-0.1,0.1-0.2,0.2c-0.1,0-0.1,0,0,0c-0.2,0.2-0.3,0.4-0.5,0.6c-0.1,0.2-0.2,0.4-0.3,0.6
		c-0.2,0.3-0.3,0.7-0.4,1.1c0-0.1,0-0.2,0-0.2c-0.1-0.7,0-1.3,0.2-2C179.6,201.1,179.6,200.9,179.7,200.7
		C179.7,200.7,179.7,200.7,179.7,200.7z"/>
	<path class="st4" d="M201.7,212.2c0-0.1-0.1,0-0.1,0c-2,0-4,0-6,0c-0.1,0-0.2,0-0.2,0c0,0-0.1,0-0.1,0c0,0,0.1,0,0.1,0
		C197.5,212.1,199.6,212.1,201.7,212.2C201.7,212.1,201.7,212.1,201.7,212.2z"/>
	<path class="st4" d="M195.3,212.2C195.2,212.2,195.2,212.2,195.3,212.2c-1.3,0-2.4,0-3.6,0c0,0,0,0-0.1,0c0,0,0,0,0.1,0
		C192.8,212.2,194,212.2,195.3,212.2C195.2,212.2,195.3,212.2,195.3,212.2z"/>
	<path class="st4" d="M191.4,212.2C191.4,212.2,191.4,212.2,191.4,212.2C191.4,212.2,191.4,212.2,191.4,212.2z"/>
	<path class="st4" d="M180.5,201.2C180.4,201.1,180.4,201.1,180.5,201.2C180.5,201.1,180.5,201.2,180.5,201.2z"/>
	<path class="st4" d="M191.3,212.2C191.3,212.2,191.3,212.2,191.3,212.2C191.2,212.2,191.3,212.2,191.3,212.2z"/>
	<path class="st4" d="M191.2,212.2C191.2,212.2,191.2,212.2,191.2,212.2C191.1,212.2,191.2,212.2,191.2,212.2z"/>
	<path class="st4" d="M191.1,212.2C191.1,212.2,191.1,212.2,191.1,212.2C191.1,212.2,191.1,212.2,191.1,212.2z"/>
	<path class="st4" d="M191,212.2C191,212.3,191,212.3,191,212.2C191,212.2,191,212.2,191,212.2z"/>
	<path class="st4" d="M190.9,212.3C190.9,212.3,190.9,212.3,190.9,212.3C190.9,212.3,190.9,212.3,190.9,212.3z"/>
	<path class="st4" d="M190.9,212.3C190.8,212.3,190.8,212.3,190.9,212.3C190.8,212.3,190.8,212.3,190.9,212.3z"/>
	<path class="st4" d="M190.6,212.4C190.6,212.4,190.6,212.4,190.6,212.4C190.6,212.4,190.6,212.4,190.6,212.4z"/>
	<path class="st4" d="M190.5,212.4C190.4,212.5,190.4,212.5,190.5,212.4C190.4,212.4,190.4,212.4,190.5,212.4z"/>
	<path class="st3" d="M177.7,198.1C177.7,198.1,177.7,198.1,177.7,198.1C177.6,198.1,177.6,198.1,177.7,198.1
		C177.6,198.1,177.6,198.1,177.7,198.1C177.7,198.1,177.7,198.1,177.7,198.1z"/>
</g>
</svg>
